# xmcd
# Track frame offsets:
# 149929
# 169013
# 193765
# 208593
# 232225
# 257660
# 273650
# 278910
#
# Disc length: 4011 seconds
# Revision: 0
# Processed by: cddbd v1.5.1PL0 Copyright (c) Steve Scherf et al.
# Submitted via: VisiTrax 2.9.10.228 - For more info visit www.synapsa.com
#
DISCID=9507dc08
DTITLE=Various Artist - THD 03
DYEAR=1997
DGENRE=Alternative
TTITLE0=Pierre Schaeffer - Étude Aux Sons Animés
TTITLE1=Cristina Branco - Povo Que Lav As No Rio
TTITLE2=Negativland - Truth In Advertising
TTITLE3=Arie Kleijwegt - Elisabeth II
TTITLE4=We - In Time
TTITLE5=John Oswald - Power
TTITLE6=Les Inuits - Kat Souv Aqt Aq
TTITLE7=Soom - White and Yellow
EXTD=Fall 1997
EXTT0=
EXTT1=
EXTT2=
EXTT3=
EXTT4=
EXTT5=
EXTT6=
EXTT7=
PLAYORDER=
